<svg id="svg" version="1.1" xmlns="http://www.w3.org/2000/svg" xmlns:xlink="http://www.w3.org/1999/xlink" width="400" height="400" viewBox="0, 0, 400,400"><g id="svgg"><path id="path0" d="M253.500 127.232 C 253.114 127.457,251.538 127.881,249.996 128.174 C 248.454 128.468,246.944 128.915,246.640 129.167 C 246.337 129.418,244.794 129.895,243.212 130.224 C 241.629 130.554,239.944 131.075,239.467 131.381 C 238.990 131.688,237.534 132.132,236.231 132.368 C 234.928 132.605,233.469 133.056,232.988 133.371 C 232.507 133.686,230.982 134.149,229.600 134.400 C 228.218 134.651,226.693 135.114,226.212 135.429 C 225.731 135.744,224.272 136.195,222.969 136.432 C 221.666 136.668,220.191 137.124,219.691 137.446 C 219.191 137.768,217.756 138.220,216.503 138.452 C 215.250 138.683,213.590 139.193,212.813 139.584 C 212.036 139.975,210.500 140.424,209.400 140.583 C 208.300 140.741,206.860 141.199,206.200 141.600 C 205.540 142.001,204.100 142.459,203.000 142.617 C 201.900 142.776,200.364 143.225,199.587 143.616 C 198.810 144.007,197.150 144.517,195.897 144.748 C 194.644 144.980,193.209 145.433,192.709 145.756 C 192.209 146.078,190.630 146.550,189.200 146.804 C 187.770 147.058,186.330 147.506,186.000 147.800 C 185.670 148.094,184.240 148.543,182.822 148.799 C 181.405 149.054,179.875 149.524,179.422 149.842 C 178.970 150.160,177.970 150.596,177.200 150.811 C 175.012 151.423,172.023 154.293,171.586 156.200 C 171.376 157.116,171.215 176.778,171.210 202.220 C 171.202 236.225,171.087 246.753,170.720 247.120 C 169.987 247.853,167.561 247.693,165.899 246.802 C 164.184 245.883,153.673 244.598,151.000 244.980 C 150.120 245.106,147.535 245.385,145.256 245.599 C 142.413 245.867,140.717 246.232,139.856 246.760 C 139.165 247.183,137.743 247.656,136.695 247.811 C 135.648 247.966,134.388 248.407,133.895 248.791 C 133.403 249.175,132.550 249.624,132.000 249.789 C 131.450 249.953,130.640 250.419,130.200 250.824 C 127.707 253.120,126.000 254.948,126.000 255.322 C 126.000 255.557,125.595 256.180,125.100 256.706 C 123.642 258.258,123.766 264.443,125.300 266.656 C 125.905 267.529,126.400 268.374,126.400 268.535 C 126.400 268.957,129.106 271.600,129.538 271.600 C 129.738 271.600,130.134 271.879,130.417 272.220 C 131.247 273.220,136.416 275.558,138.777 276.000 C 139.974 276.225,141.414 276.721,141.977 277.104 C 143.527 278.158,161.679 278.154,163.231 277.099 C 163.798 276.714,165.328 276.203,166.631 275.965 C 167.934 275.726,169.540 275.207,170.200 274.811 C 170.860 274.415,171.850 273.955,172.400 273.789 C 174.305 273.215,178.243 269.669,180.000 266.949 L 181.000 265.400 181.209 230.800 C 181.323 211.770,181.458 196.169,181.509 196.131 C 181.559 196.093,182.275 195.840,183.100 195.570 C 183.925 195.299,185.230 194.760,186.000 194.373 C 186.770 193.985,188.210 193.541,189.200 193.386 C 190.190 193.231,191.630 192.787,192.400 192.400 C 193.170 192.013,194.610 191.569,195.600 191.414 C 196.590 191.259,198.056 190.800,198.859 190.394 C 199.661 189.988,201.357 189.464,202.628 189.229 C 203.898 188.994,205.331 188.544,205.812 188.229 C 206.293 187.914,207.818 187.451,209.200 187.200 C 210.582 186.949,212.107 186.486,212.588 186.171 C 213.069 185.856,214.511 185.404,215.794 185.167 C 217.076 184.930,218.516 184.480,218.994 184.167 C 219.471 183.854,220.922 183.402,222.218 183.163 C 223.514 182.923,225.210 182.407,225.987 182.016 C 226.764 181.625,228.300 181.176,229.400 181.017 C 230.500 180.859,231.940 180.407,232.600 180.012 C 233.260 179.617,234.700 179.167,235.800 179.012 C 236.900 178.857,238.340 178.401,239.000 178.000 C 239.660 177.599,241.100 177.147,242.200 176.996 C 243.300 176.846,244.920 176.356,245.800 175.907 C 247.846 174.865,252.720 174.430,253.235 175.243 C 253.829 176.181,253.696 222.516,253.097 223.335 C 252.518 224.126,247.734 223.419,244.614 222.081 C 242.320 221.097,228.972 221.083,226.585 222.063 C 225.697 222.427,224.077 222.852,222.985 223.006 C 221.893 223.160,220.564 223.562,220.031 223.898 C 219.498 224.234,218.215 224.732,217.181 225.005 C 215.542 225.437,213.134 226.969,210.143 229.480 C 209.672 229.876,208.969 230.830,208.582 231.600 C 208.194 232.370,207.607 233.198,207.278 233.439 C 206.171 234.250,206.443 241.609,207.639 243.219 C 210.703 247.342,214.717 250.477,217.931 251.258 C 218.959 251.508,220.070 251.944,220.400 252.227 C 220.730 252.510,222.670 253.031,224.712 253.385 C 226.753 253.739,228.913 254.226,229.512 254.468 C 231.446 255.248,239.024 255.007,242.564 254.053 C 244.304 253.584,246.197 253.200,246.770 253.200 C 247.343 253.200,248.489 252.837,249.317 252.393 C 250.144 251.950,251.699 251.399,252.771 251.169 C 253.843 250.939,255.036 250.402,255.422 249.975 C 255.808 249.549,256.296 249.200,256.506 249.200 C 257.227 249.200,260.831 245.900,261.477 244.649 C 261.832 243.962,262.410 243.190,262.761 242.932 C 263.341 242.508,263.400 237.316,263.400 186.871 L 263.400 131.277 262.357 130.311 C 261.784 129.779,261.244 129.170,261.157 128.957 C 260.626 127.649,254.971 126.375,253.500 127.232 " stroke="none" fill="#050404" fill-rule="evenodd"></path><path id="path1" d="M0.000 200.000 L 0.000 400.000 200.000 400.000 L 400.000 400.000 400.000 200.000 L 400.000 0.000 200.000 0.000 L 0.000 0.000 0.000 200.000 M210.000 33.938 C 210.990 34.155,213.934 34.542,216.542 34.797 C 219.149 35.052,222.569 35.591,224.142 35.994 C 225.714 36.397,227.986 36.856,229.192 37.014 C 230.397 37.171,232.107 37.558,232.992 37.872 C 233.876 38.187,235.827 38.704,237.326 39.022 C 238.826 39.340,240.374 39.772,240.766 39.982 C 241.158 40.191,242.721 40.722,244.239 41.160 C 248.068 42.266,251.998 43.684,256.000 45.404 C 257.870 46.207,259.850 47.012,260.400 47.191 C 262.378 47.837,275.080 54.493,278.800 56.833 C 280.890 58.147,282.977 59.383,283.438 59.578 C 283.899 59.773,284.529 60.182,284.838 60.486 C 285.147 60.789,286.480 61.740,287.800 62.598 C 289.120 63.457,291.213 64.978,292.451 65.979 C 293.688 66.981,296.004 68.790,297.597 70.000 C 306.811 77.000,322.081 93.474,329.419 104.331 C 332.126 108.337,335.441 113.548,336.205 115.000 C 336.553 115.660,337.451 117.280,338.201 118.600 C 339.624 121.103,342.183 126.230,343.892 130.000 C 344.440 131.210,345.133 132.740,345.432 133.400 C 346.505 135.769,348.039 139.876,349.466 144.200 C 350.264 146.620,351.236 149.410,351.625 150.400 C 352.014 151.390,352.534 153.320,352.781 154.688 C 353.029 156.057,353.475 157.767,353.774 158.488 C 354.072 159.210,354.516 161.099,354.760 162.686 C 355.004 164.274,355.477 166.614,355.811 167.886 C 356.145 169.159,356.600 172.000,356.821 174.200 C 357.043 176.400,357.514 180.090,357.869 182.400 C 358.646 187.454,358.769 207.237,358.053 212.000 C 357.805 213.650,357.407 216.890,357.168 219.200 C 356.764 223.104,355.604 229.408,354.151 235.600 C 353.816 237.030,353.278 239.370,352.957 240.800 C 352.635 242.230,352.037 244.300,351.626 245.400 C 351.216 246.500,350.607 248.300,350.272 249.400 C 349.937 250.500,349.128 252.840,348.474 254.600 C 347.820 256.360,346.990 258.610,346.630 259.600 C 345.454 262.826,338.298 277.355,336.188 280.800 C 334.622 283.356,333.250 285.663,332.400 287.167 C 332.070 287.751,331.064 289.213,330.165 290.415 C 329.265 291.617,328.291 293.050,328.000 293.600 C 327.710 294.150,326.555 295.715,325.436 297.077 C 324.316 298.440,322.410 300.870,321.200 302.477 C 318.325 306.297,303.155 321.513,298.800 324.945 C 296.930 326.419,294.379 328.435,293.132 329.425 C 289.720 332.133,279.780 338.728,276.600 340.394 C 275.720 340.855,274.100 341.747,273.000 342.376 C 270.100 344.035,262.491 347.764,258.600 349.434 C 255.528 350.753,252.040 352.117,250.400 352.640 C 249.410 352.956,247.700 353.551,246.600 353.963 C 239.600 356.581,223.597 360.413,217.200 361.002 C 215.770 361.134,212.620 361.542,210.200 361.910 C 203.945 362.859,183.655 362.859,177.400 361.910 C 174.980 361.542,171.830 361.134,170.400 361.002 C 164.184 360.430,146.137 356.103,140.800 353.906 C 140.250 353.680,138.810 353.172,137.600 352.779 C 135.423 352.071,131.321 350.460,129.000 349.403 C 128.340 349.102,126.540 348.294,125.000 347.607 C 123.460 346.921,120.940 345.705,119.400 344.906 C 117.860 344.106,115.880 343.081,115.000 342.626 C 114.120 342.172,112.950 341.513,112.400 341.163 C 111.850 340.813,109.601 339.463,107.402 338.163 C 105.203 336.863,102.252 334.945,100.845 333.900 C 99.437 332.855,98.146 332.000,97.976 332.000 C 97.806 332.000,96.499 331.055,95.073 329.900 C 93.647 328.745,91.067 326.721,89.340 325.402 C 85.263 322.289,69.685 306.711,66.595 302.659 C 65.278 300.931,63.284 298.411,62.164 297.059 C 61.045 295.706,59.890 294.150,59.600 293.600 C 59.309 293.050,58.337 291.610,57.441 290.400 C 56.545 289.190,55.540 287.720,55.206 287.134 C 54.463 285.828,53.192 283.705,51.413 280.800 C 50.173 278.776,43.564 265.781,43.072 264.400 C 42.954 264.070,42.199 262.270,41.394 260.400 C 39.251 255.419,36.954 248.740,35.342 242.800 C 35.013 241.590,34.389 239.421,33.953 237.980 C 33.518 236.538,32.987 234.125,32.774 232.616 C 32.560 231.107,32.121 228.956,31.799 227.836 C 31.477 226.716,30.940 223.280,30.606 220.200 C 30.271 217.120,29.834 213.340,29.634 211.800 C 28.619 203.986,28.809 187.297,29.986 180.800 C 30.206 179.590,30.550 176.800,30.753 174.600 C 30.955 172.400,31.488 168.980,31.937 167.000 C 34.432 156.003,35.400 152.073,36.126 150.000 C 36.472 149.010,37.138 147.120,37.606 145.800 C 38.073 144.480,38.686 142.590,38.967 141.600 C 39.248 140.610,39.865 139.042,40.339 138.116 C 40.813 137.190,41.200 136.219,41.200 135.960 C 41.200 135.700,41.543 134.748,41.962 133.844 C 45.007 127.273,45.854 125.497,47.040 123.200 C 47.778 121.770,48.834 119.700,49.387 118.600 C 51.456 114.483,58.908 102.973,62.078 99.000 C 63.131 97.680,64.897 95.430,66.002 94.000 C 70.540 88.125,84.088 74.575,90.000 69.997 C 91.430 68.890,93.621 67.172,94.868 66.179 C 97.788 63.856,103.937 59.706,107.600 57.585 C 108.370 57.139,109.900 56.211,111.000 55.521 C 113.413 54.009,125.636 47.739,127.600 47.005 C 131.428 45.575,133.469 44.751,134.146 44.363 C 135.163 43.780,140.032 42.099,143.213 41.233 C 144.650 40.841,146.214 40.314,146.687 40.061 C 147.160 39.807,148.774 39.340,150.274 39.022 C 151.773 38.704,153.724 38.187,154.608 37.872 C 155.493 37.558,157.203 37.171,158.408 37.014 C 159.614 36.856,161.893 36.396,163.473 35.991 C 165.052 35.585,167.662 35.141,169.273 35.003 C 170.883 34.865,174.090 34.493,176.400 34.177 C 178.710 33.860,181.230 33.529,182.000 33.441 C 184.709 33.131,208.222 33.549,210.000 33.938 " stroke="none" fill="#fcfbfb" fill-rule="evenodd"></path><path id="path2" d="M182.000 33.441 C 181.230 33.529,178.710 33.860,176.400 34.177 C 174.090 34.493,170.883 34.865,169.273 35.003 C 167.662 35.141,165.052 35.585,163.473 35.991 C 161.893 36.396,159.614 36.856,158.408 37.014 C 157.203 37.171,155.493 37.558,154.608 37.872 C 153.724 38.187,151.773 38.704,150.274 39.022 C 148.774 39.340,147.160 39.807,146.687 40.061 C 146.214 40.314,144.650 40.841,143.213 41.233 C 140.032 42.099,135.163 43.780,134.146 44.363 C 133.469 44.751,131.428 45.575,127.600 47.005 C 125.636 47.739,113.413 54.009,111.000 55.521 C 109.900 56.211,108.370 57.139,107.600 57.585 C 103.937 59.706,97.788 63.856,94.868 66.179 C 93.621 67.172,91.430 68.890,90.000 69.997 C 84.088 74.575,70.540 88.125,66.002 94.000 C 64.897 95.430,63.131 97.680,62.078 99.000 C 58.908 102.973,51.456 114.483,49.387 118.600 C 48.834 119.700,47.778 121.770,47.040 123.200 C 45.854 125.497,45.007 127.273,41.962 133.844 C 41.543 134.748,41.200 135.700,41.200 135.960 C 41.200 136.219,40.813 137.190,40.339 138.116 C 39.865 139.042,39.248 140.610,38.967 141.600 C 38.686 142.590,38.073 144.480,37.606 145.800 C 37.138 147.120,36.472 149.010,36.126 150.000 C 35.400 152.073,34.432 156.003,31.937 167.000 C 31.488 168.980,30.955 172.400,30.753 174.600 C 30.550 176.800,30.206 179.590,29.986 180.800 C 28.809 187.297,28.619 203.986,29.634 211.800 C 29.834 213.340,30.271 217.120,30.606 220.200 C 30.940 223.280,31.477 226.716,31.799 227.836 C 32.121 228.956,32.560 231.107,32.774 232.616 C 32.987 234.125,33.518 236.538,33.953 237.980 C 34.389 239.421,35.013 241.590,35.342 242.800 C 36.954 248.740,39.251 255.419,41.394 260.400 C 42.199 262.270,42.954 264.070,43.072 264.400 C 43.564 265.781,50.173 278.776,51.413 280.800 C 53.192 283.705,54.463 285.828,55.206 287.134 C 55.540 287.720,56.545 289.190,57.441 290.400 C 58.337 291.610,59.309 293.050,59.600 293.600 C 59.890 294.150,61.045 295.706,62.164 297.059 C 63.284 298.411,65.278 300.931,66.595 302.659 C 69.685 306.711,85.263 322.289,89.340 325.402 C 91.067 326.721,93.647 328.745,95.073 329.900 C 96.499 331.055,97.806 332.000,97.976 332.000 C 98.146 332.000,99.437 332.855,100.845 333.900 C 102.252 334.945,105.203 336.863,107.402 338.163 C 109.601 339.463,111.850 340.813,112.400 341.163 C 112.950 341.513,114.120 342.172,115.000 342.626 C 115.880 343.081,117.860 344.106,119.400 344.906 C 120.940 345.705,123.460 346.921,125.000 347.607 C 126.540 348.294,128.340 349.102,129.000 349.403 C 131.321 350.460,135.423 352.071,137.600 352.779 C 138.810 353.172,140.250 353.680,140.800 353.906 C 146.137 356.103,164.184 360.430,170.400 361.002 C 171.830 361.134,174.980 361.542,177.400 361.910 C 183.655 362.859,203.945 362.859,210.200 361.910 C 212.620 361.542,215.770 361.134,217.200 361.002 C 223.597 360.413,239.600 356.581,246.600 353.963 C 247.700 353.551,249.410 352.956,250.400 352.640 C 255.467 351.023,267.189 345.700,273.000 342.376 C 274.100 341.747,275.720 340.855,276.600 340.394 C 279.780 338.728,289.720 332.133,293.132 329.425 C 294.379 328.435,296.930 326.419,298.800 324.945 C 303.155 321.513,318.325 306.297,321.200 302.477 C 322.410 300.870,324.316 298.440,325.436 297.077 C 326.555 295.715,327.710 294.150,328.000 293.600 C 328.291 293.050,329.265 291.617,330.165 290.415 C 331.064 289.213,332.070 287.751,332.400 287.167 C 333.250 285.663,334.622 283.356,336.188 280.800 C 338.298 277.355,345.454 262.826,346.630 259.600 C 346.990 258.610,347.820 256.360,348.474 254.600 C 349.128 252.840,349.937 250.500,350.272 249.400 C 350.607 248.300,351.216 246.500,351.626 245.400 C 352.037 244.300,352.635 242.230,352.957 240.800 C 353.278 239.370,353.816 237.030,354.151 235.600 C 355.604 229.408,356.764 223.104,357.168 219.200 C 357.407 216.890,357.805 213.650,358.053 212.000 C 358.769 207.237,358.646 187.454,357.869 182.400 C 357.514 180.090,357.043 176.400,356.821 174.200 C 356.600 172.000,356.145 169.159,355.811 167.886 C 355.477 166.614,355.004 164.274,354.760 162.686 C 354.516 161.099,354.072 159.210,353.774 158.488 C 353.475 157.767,353.029 156.057,352.781 154.688 C 352.534 153.320,352.014 151.390,351.625 150.400 C 351.236 149.410,350.264 146.620,349.466 144.200 C 348.039 139.876,346.505 135.769,345.432 133.400 C 345.133 132.740,344.440 131.210,343.892 130.000 C 342.183 126.230,339.624 121.103,338.201 118.600 C 337.451 117.280,336.553 115.660,336.205 115.000 C 335.441 113.548,332.126 108.337,329.419 104.331 C 322.081 93.474,306.811 77.000,297.597 70.000 C 296.004 68.790,293.688 66.981,292.451 65.979 C 291.213 64.978,289.120 63.457,287.800 62.598 C 286.480 61.740,285.147 60.789,284.838 60.486 C 284.529 60.182,283.899 59.773,283.438 59.578 C 282.977 59.383,280.890 58.147,278.800 56.833 C 275.080 54.493,262.378 47.837,260.400 47.191 C 259.850 47.012,257.870 46.207,256.000 45.404 C 251.998 43.684,248.068 42.266,244.239 41.160 C 242.721 40.722,241.158 40.191,240.766 39.982 C 240.374 39.772,238.826 39.340,237.326 39.022 C 235.827 38.704,233.876 38.187,232.992 37.872 C 232.107 37.558,230.397 37.171,229.192 37.014 C 227.986 36.856,225.714 36.397,224.142 35.994 C 222.569 35.591,219.149 35.052,216.542 34.797 C 213.934 34.542,210.990 34.155,210.000 33.938 C 208.222 33.549,184.709 33.131,182.000 33.441 M259.927 126.200 C 260.581 126.750,261.265 127.200,261.448 127.200 C 262.247 127.200,264.362 130.189,264.612 131.674 C 264.760 132.549,265.132 133.746,265.438 134.333 C 266.270 135.928,266.274 235.932,265.442 238.486 C 265.134 239.429,264.762 240.920,264.614 241.800 C 264.212 244.186,259.804 250.000,258.397 250.000 C 258.212 250.000,257.553 250.423,256.931 250.939 C 256.309 251.456,255.260 252.010,254.600 252.170 C 253.940 252.331,253.106 252.728,252.746 253.052 C 252.386 253.376,250.856 253.844,249.346 254.091 C 247.820 254.341,246.096 254.909,245.467 255.370 C 243.670 256.686,226.945 256.640,224.701 255.314 C 223.876 254.826,222.256 254.314,221.101 254.175 C 219.945 254.036,218.531 253.594,217.958 253.193 C 217.385 252.791,216.170 252.261,215.258 252.016 C 214.346 251.770,213.600 251.399,213.600 251.190 C 213.600 250.981,213.015 250.553,212.300 250.238 C 209.231 248.886,205.852 244.301,205.483 240.988 C 205.359 239.881,205.214 238.801,205.160 238.588 C 204.804 237.189,206.134 231.200,206.800 231.200 C 206.967 231.200,207.333 230.645,207.614 229.966 C 207.895 229.288,208.547 228.572,209.062 228.376 C 209.578 228.180,210.000 227.767,210.000 227.458 C 210.000 227.150,210.527 226.679,211.171 226.412 C 211.815 226.145,212.433 225.691,212.543 225.404 C 212.654 225.116,213.432 224.656,214.272 224.382 C 215.112 224.108,216.214 223.562,216.721 223.168 C 217.227 222.774,218.667 222.327,219.921 222.174 C 221.174 222.020,222.720 221.528,223.355 221.081 C 225.758 219.388,244.550 219.439,247.311 221.145 C 248.254 221.728,249.247 222.007,250.089 221.926 L 251.400 221.800 251.511 199.800 C 251.642 173.682,251.786 174.840,248.647 176.765 C 247.961 177.186,246.500 177.657,245.400 177.812 C 244.300 177.967,242.856 178.423,242.191 178.824 C 241.525 179.225,239.836 179.738,238.437 179.963 C 237.038 180.188,235.582 180.654,235.201 180.999 C 234.821 181.343,233.540 181.732,232.355 181.864 C 231.170 181.995,229.617 182.453,228.905 182.881 C 228.192 183.309,226.509 183.815,225.163 184.005 C 223.818 184.195,222.397 184.641,222.006 184.995 C 221.615 185.349,220.060 185.830,218.552 186.065 C 217.043 186.300,215.404 186.811,214.910 187.199 C 214.416 187.588,212.979 188.035,211.718 188.193 C 210.457 188.350,209.005 188.810,208.492 189.213 C 207.979 189.617,206.533 190.070,205.279 190.220 C 204.026 190.370,202.438 190.832,201.752 191.247 C 201.065 191.662,199.625 192.114,198.552 192.252 C 197.478 192.390,196.017 192.853,195.305 193.281 C 194.592 193.709,192.909 194.215,191.563 194.405 C 190.218 194.595,188.807 195.032,188.428 195.375 C 188.049 195.718,186.889 196.157,185.851 196.351 C 184.813 196.545,183.836 196.830,183.682 196.985 C 183.527 197.140,183.296 211.966,183.169 229.933 C 182.916 265.567,182.880 266.118,180.613 268.897 C 177.896 272.227,177.368 272.783,176.923 272.791 C 176.660 272.796,176.194 273.159,175.886 273.599 C 175.578 274.038,174.713 274.604,173.963 274.855 C 173.213 275.107,172.286 275.584,171.903 275.916 C 171.520 276.247,170.282 276.665,169.152 276.843 C 168.023 277.022,166.764 277.471,166.355 277.841 C 165.848 278.299,164.238 278.668,161.306 278.999 C 158.938 279.265,156.493 279.689,155.874 279.942 C 154.337 280.567,151.185 280.518,149.114 279.835 C 148.171 279.524,145.870 279.143,144.000 278.988 C 141.602 278.788,140.071 278.425,138.803 277.753 C 137.815 277.229,136.444 276.800,135.757 276.800 C 135.070 276.800,134.076 276.460,133.547 276.044 C 133.019 275.629,131.960 275.020,131.193 274.692 C 129.791 274.092,125.200 270.061,125.200 269.431 C 125.200 269.244,124.771 268.694,124.247 268.208 C 122.551 266.636,122.321 256.929,123.942 255.320 C 124.304 254.961,124.966 254.065,125.413 253.329 C 126.306 251.859,129.797 248.800,130.582 248.800 C 130.854 248.800,131.392 248.451,131.778 248.025 C 132.164 247.598,133.399 247.052,134.523 246.811 C 135.648 246.570,136.848 246.119,137.190 245.809 C 137.533 245.499,139.048 245.048,140.557 244.807 C 142.066 244.566,143.863 244.066,144.550 243.695 C 146.621 242.580,159.544 242.720,162.011 243.884 C 163.038 244.369,164.855 244.795,166.211 244.869 L 168.600 245.000 168.800 201.400 C 168.982 161.786,169.061 157.672,169.667 156.400 C 170.034 155.630,170.541 154.438,170.794 153.752 C 171.047 153.065,171.692 152.304,172.227 152.060 C 172.762 151.817,173.200 151.424,173.200 151.189 C 173.200 150.954,173.875 150.452,174.700 150.074 C 175.525 149.696,176.650 149.095,177.200 148.739 C 177.750 148.383,179.174 147.971,180.365 147.824 C 181.556 147.676,182.949 147.226,183.460 146.824 C 183.971 146.422,185.426 145.966,186.694 145.810 C 187.963 145.654,189.289 145.269,189.641 144.954 C 189.994 144.640,191.533 144.144,193.061 143.853 C 194.589 143.562,196.281 143.045,196.820 142.705 C 197.359 142.365,198.951 141.891,200.358 141.653 C 201.764 141.415,203.207 140.956,203.563 140.634 C 203.919 140.312,205.321 139.869,206.679 139.651 C 208.036 139.432,209.596 138.959,210.143 138.600 C 210.691 138.241,212.252 137.791,213.611 137.598 C 214.970 137.406,216.406 136.957,216.800 136.600 C 217.194 136.243,218.572 135.802,219.861 135.620 C 221.150 135.437,222.833 134.929,223.602 134.490 C 224.371 134.050,225.974 133.570,227.165 133.423 C 228.356 133.276,229.754 132.823,230.270 132.416 C 230.811 131.990,232.267 131.555,233.705 131.388 C 235.117 131.225,236.600 130.785,237.121 130.376 C 237.627 129.978,239.065 129.525,240.315 129.368 C 241.566 129.212,243.046 128.747,243.604 128.334 C 244.162 127.921,245.604 127.476,246.809 127.344 C 248.014 127.213,249.450 126.811,250.000 126.452 C 252.520 124.808,258.104 124.666,259.927 126.200 " stroke="none" fill="#fbc304" fill-rule="evenodd"></path><path id="path3" d="M251.800 125.540 C 251.360 125.683,250.550 126.094,250.000 126.452 C 249.450 126.811,248.014 127.213,246.809 127.344 C 245.604 127.476,244.162 127.921,243.604 128.334 C 243.046 128.747,241.566 129.212,240.315 129.368 C 239.065 129.525,237.627 129.978,237.121 130.376 C 236.600 130.785,235.117 131.225,233.705 131.388 C 232.267 131.555,230.811 131.990,230.270 132.416 C 229.754 132.823,228.356 133.276,227.165 133.423 C 225.974 133.570,224.371 134.050,223.602 134.490 C 222.833 134.929,221.150 135.437,219.861 135.620 C 218.572 135.802,217.194 136.243,216.800 136.600 C 216.406 136.957,214.970 137.406,213.611 137.598 C 212.252 137.791,210.691 138.241,210.143 138.600 C 209.596 138.959,208.036 139.432,206.679 139.651 C 205.321 139.869,203.919 140.312,203.563 140.634 C 203.207 140.956,201.764 141.415,200.358 141.653 C 198.951 141.891,197.359 142.365,196.820 142.705 C 196.281 143.045,194.589 143.562,193.061 143.853 C 191.533 144.144,189.994 144.640,189.641 144.954 C 189.289 145.269,187.963 145.654,186.694 145.810 C 185.426 145.966,183.971 146.422,183.460 146.824 C 182.949 147.226,181.556 147.676,180.365 147.824 C 179.174 147.971,177.750 148.383,177.200 148.739 C 176.650 149.095,175.525 149.696,174.700 150.074 C 173.875 150.452,173.200 150.954,173.200 151.189 C 173.200 151.424,172.762 151.817,172.227 152.060 C 171.692 152.304,171.047 153.065,170.794 153.752 C 170.541 154.438,170.034 155.630,169.667 156.400 C 169.061 157.672,168.982 161.786,168.800 201.400 L 168.600 245.000 166.211 244.869 C 164.855 244.795,163.038 244.369,162.011 243.884 C 159.544 242.720,146.621 242.580,144.550 243.695 C 143.863 244.066,142.066 244.566,140.557 244.807 C 139.048 245.048,137.533 245.499,137.190 245.809 C 136.848 246.119,135.648 246.570,134.523 246.811 C 133.399 247.052,132.164 247.598,131.778 248.025 C 131.392 248.451,130.854 248.800,130.582 248.800 C 129.797 248.800,126.306 251.859,125.413 253.329 C 124.966 254.065,124.304 254.961,123.942 255.320 C 122.321 256.929,122.551 266.636,124.247 268.208 C 124.771 268.694,125.200 269.244,125.200 269.431 C 125.200 270.061,129.791 274.092,131.193 274.692 C 131.960 275.020,133.019 275.629,133.547 276.044 C 134.076 276.460,135.070 276.800,135.757 276.800 C 136.444 276.800,137.815 277.229,138.803 277.753 C 140.071 278.425,141.602 278.788,144.000 278.988 C 145.870 279.143,148.171 279.524,149.114 279.835 C 151.185 280.518,154.337 280.567,155.874 279.942 C 156.493 279.689,158.938 279.265,161.306 278.999 C 164.238 278.668,165.848 278.299,166.355 277.841 C 166.764 277.471,168.023 277.022,169.152 276.843 C 170.282 276.665,171.520 276.247,171.903 275.916 C 172.286 275.584,173.213 275.107,173.963 274.855 C 174.713 274.604,175.578 274.038,175.886 273.599 C 176.194 273.159,176.660 272.796,176.923 272.791 C 177.368 272.783,177.896 272.227,180.613 268.897 C 182.880 266.118,182.916 265.567,183.169 229.933 C 183.296 211.966,183.527 197.140,183.682 196.985 C 183.836 196.830,184.813 196.545,185.851 196.351 C 186.889 196.157,188.049 195.718,188.428 195.375 C 188.807 195.032,190.218 194.595,191.563 194.405 C 192.909 194.215,194.592 193.709,195.305 193.281 C 196.017 192.853,197.478 192.390,198.552 192.252 C 199.625 192.114,201.065 191.662,201.752 191.247 C 202.438 190.832,204.026 190.370,205.279 190.220 C 206.533 190.070,207.979 189.617,208.492 189.213 C 209.005 188.810,210.457 188.350,211.718 188.193 C 212.979 188.035,214.416 187.588,214.910 187.199 C 215.404 186.811,217.043 186.300,218.552 186.065 C 220.060 185.830,221.615 185.349,222.006 184.995 C 222.397 184.641,223.818 184.195,225.163 184.005 C 226.509 183.815,228.192 183.309,228.905 182.881 C 229.617 182.453,231.170 181.995,232.355 181.864 C 233.540 181.732,234.821 181.343,235.201 180.999 C 235.582 180.654,237.038 180.188,238.437 179.963 C 239.836 179.738,241.525 179.225,242.191 178.824 C 242.856 178.423,244.300 177.967,245.400 177.812 C 246.500 177.657,247.961 177.186,248.647 176.765 C 251.786 174.840,251.642 173.682,251.511 199.800 L 251.400 221.800 250.089 221.926 C 249.247 222.007,248.254 221.728,247.311 221.145 C 244.550 219.439,225.758 219.388,223.355 221.081 C 222.720 221.528,221.174 222.020,219.921 222.174 C 218.667 222.327,217.227 222.774,216.721 223.168 C 216.214 223.562,215.112 224.108,214.272 224.382 C 213.432 224.656,212.654 225.116,212.543 225.404 C 212.433 225.691,211.815 226.145,211.171 226.412 C 210.527 226.679,210.000 227.150,210.000 227.458 C 210.000 227.767,209.578 228.180,209.062 228.376 C 208.547 228.572,207.895 229.288,207.614 229.966 C 207.333 230.645,206.967 231.200,206.800 231.200 C 206.134 231.200,204.804 237.189,205.160 238.588 C 205.214 238.801,205.359 239.881,205.483 240.988 C 205.852 244.301,209.231 248.886,212.300 250.238 C 213.015 250.553,213.600 250.981,213.600 251.190 C 213.600 251.399,214.346 251.770,215.258 252.016 C 216.170 252.261,217.385 252.791,217.958 253.193 C 218.531 253.594,219.945 254.036,221.101 254.175 C 222.256 254.314,223.876 254.826,224.701 255.314 C 226.945 256.640,243.670 256.686,245.467 255.370 C 246.096 254.909,247.820 254.341,249.346 254.091 C 250.856 253.844,252.386 253.376,252.746 253.052 C 253.106 252.728,253.940 252.331,254.600 252.170 C 255.260 252.010,256.309 251.456,256.931 250.939 C 257.553 250.423,258.212 250.000,258.397 250.000 C 259.804 250.000,264.212 244.186,264.614 241.800 C 264.762 240.920,265.134 239.429,265.442 238.486 C 266.274 235.932,266.270 135.928,265.438 134.333 C 265.132 133.746,264.760 132.549,264.612 131.674 C 264.362 130.189,262.247 127.200,261.448 127.200 C 261.265 127.200,260.581 126.750,259.927 126.200 C 258.717 125.182,254.063 124.804,251.800 125.540 M259.729 126.987 C 261.864 128.248,263.524 130.027,264.117 131.691 C 264.786 133.568,265.039 233.423,264.388 238.800 C 263.638 245.005,259.314 250.017,253.000 252.001 C 252.120 252.278,251.208 252.656,250.973 252.841 C 250.738 253.026,249.568 253.375,248.373 253.616 C 247.178 253.857,245.480 254.341,244.600 254.692 C 242.591 255.494,231.177 255.888,228.200 255.258 C 218.432 253.192,210.070 249.178,208.261 245.687 C 208.066 245.309,207.460 244.337,206.916 243.526 C 205.809 241.876,205.473 235.632,206.382 233.600 C 208.693 228.437,215.255 223.586,221.265 222.597 C 222.219 222.440,223.810 221.932,224.800 221.468 C 227.324 220.286,243.384 220.157,245.480 221.301 C 247.429 222.365,250.456 222.911,251.728 222.428 L 252.800 222.020 252.800 199.053 C 252.800 178.479,252.734 176.060,252.167 175.843 C 251.002 175.396,249.015 175.611,247.356 176.364 C 246.452 176.775,244.922 177.242,243.956 177.403 C 242.990 177.564,241.542 178.030,240.737 178.437 C 239.932 178.845,238.492 179.297,237.537 179.442 C 236.582 179.587,235.034 180.046,234.099 180.463 C 233.163 180.880,231.543 181.384,230.499 181.583 C 229.454 181.782,227.790 182.314,226.800 182.764 C 225.810 183.214,224.590 183.586,224.088 183.591 C 223.586 183.596,222.146 184.030,220.888 184.555 C 219.630 185.080,217.790 185.642,216.800 185.803 C 215.810 185.964,214.370 186.413,213.600 186.800 C 212.830 187.187,211.390 187.637,210.400 187.799 C 209.410 187.962,208.112 188.344,207.516 188.649 C 206.920 188.955,205.211 189.487,203.719 189.833 C 202.228 190.179,200.813 190.623,200.576 190.820 C 200.339 191.017,198.908 191.465,197.397 191.815 C 195.886 192.166,194.284 192.648,193.838 192.887 C 193.392 193.126,191.850 193.635,190.413 194.019 C 185.095 195.440,182.654 196.525,182.356 197.600 C 182.204 198.150,182.062 213.020,182.040 230.645 C 181.999 263.605,181.883 266.221,180.395 267.805 C 179.958 268.271,179.600 268.806,179.600 268.994 C 179.600 269.293,177.237 271.627,175.444 273.098 C 174.445 273.918,168.991 276.399,168.166 276.409 C 167.745 276.414,166.590 276.788,165.600 277.241 C 160.994 279.348,145.584 279.550,140.800 277.566 C 139.810 277.156,138.188 276.644,137.195 276.430 C 132.608 275.438,127.394 271.772,124.923 267.800 C 121.231 261.867,124.435 252.265,131.073 249.368 C 131.773 249.062,132.457 248.632,132.593 248.411 C 132.729 248.191,133.867 247.724,135.120 247.374 C 136.374 247.024,137.978 246.476,138.684 246.157 C 140.296 245.429,150.386 243.604,152.810 243.602 C 155.334 243.599,165.812 245.482,167.163 246.181 C 170.584 247.950,170.390 250.692,170.396 200.373 C 170.401 151.472,170.210 154.434,173.506 152.004 C 175.917 150.228,178.831 148.869,181.391 148.328 C 182.496 148.094,183.865 147.665,184.433 147.376 C 185.002 147.086,186.699 146.563,188.206 146.213 C 189.712 145.864,191.139 145.417,191.376 145.220 C 191.613 145.023,193.028 144.579,194.519 144.233 C 196.011 143.887,197.720 143.355,198.316 143.049 C 198.912 142.744,200.210 142.365,201.200 142.206 C 202.190 142.047,203.572 141.652,204.271 141.327 C 204.970 141.002,206.770 140.407,208.271 140.004 C 211.033 139.262,213.524 138.489,216.800 137.358 C 217.790 137.016,219.860 136.405,221.400 136.000 C 222.940 135.595,225.010 134.984,226.000 134.642 C 229.398 133.469,231.805 132.727,234.799 131.931 C 236.449 131.492,237.980 130.982,238.203 130.798 C 238.425 130.613,239.828 130.179,241.319 129.833 C 242.811 129.487,244.523 128.950,245.124 128.639 C 245.725 128.329,247.203 127.891,248.408 127.668 C 249.614 127.444,251.140 126.978,251.800 126.633 C 253.739 125.618,257.711 125.795,259.729 126.987 " stroke="none" fill="#a47c0c" fill-rule="evenodd"></path><path id="path4" d="M251.800 126.633 C 251.140 126.978,249.614 127.444,248.408 127.668 C 247.203 127.891,245.725 128.329,245.124 128.639 C 244.523 128.950,242.811 129.487,241.319 129.833 C 239.828 130.179,238.425 130.613,238.203 130.798 C 237.980 130.982,236.449 131.492,234.799 131.931 C 231.805 132.727,229.398 133.469,226.000 134.642 C 225.010 134.984,222.940 135.595,221.400 136.000 C 219.860 136.405,217.790 137.016,216.800 137.358 C 213.524 138.489,211.033 139.262,208.271 140.004 C 206.770 140.407,204.970 141.002,204.271 141.327 C 203.572 141.652,202.190 142.047,201.200 142.206 C 200.210 142.365,198.912 142.744,198.316 143.049 C 197.720 143.355,196.011 143.887,194.519 144.233 C 193.028 144.579,191.613 145.023,191.376 145.220 C 191.139 145.417,189.712 145.864,188.206 146.213 C 186.699 146.563,185.002 147.086,184.433 147.376 C 183.865 147.665,182.496 148.094,181.391 148.328 C 178.831 148.869,175.917 150.228,173.506 152.004 C 170.210 154.434,170.401 151.472,170.396 200.373 C 170.390 250.692,170.584 247.950,167.163 246.181 C 165.812 245.482,155.334 243.599,152.810 243.602 C 150.386 243.604,140.296 245.429,138.684 246.157 C 137.978 246.476,136.374 247.024,135.120 247.374 C 133.867 247.724,132.729 248.191,132.593 248.411 C 132.457 248.632,131.773 249.062,131.073 249.368 C 124.435 252.265,121.231 261.867,124.923 267.800 C 127.394 271.772,132.608 275.438,137.195 276.430 C 138.188 276.644,139.810 277.156,140.800 277.566 C 145.584 279.550,160.994 279.348,165.600 277.241 C 166.590 276.788,167.745 276.414,168.166 276.409 C 168.991 276.399,174.445 273.918,175.444 273.098 C 177.237 271.627,179.600 269.293,179.600 268.994 C 179.600 268.806,179.958 268.271,180.395 267.805 C 181.883 266.221,181.999 263.605,182.040 230.645 C 182.062 213.020,182.204 198.150,182.356 197.600 C 182.654 196.525,185.095 195.440,190.413 194.019 C 191.850 193.635,193.392 193.126,193.838 192.887 C 194.284 192.648,195.886 192.166,197.397 191.815 C 198.908 191.465,200.339 191.017,200.576 190.820 C 200.813 190.623,202.228 190.179,203.719 189.833 C 205.211 189.487,206.920 188.955,207.516 188.649 C 208.112 188.344,209.410 187.962,210.400 187.799 C 211.390 187.637,212.830 187.187,213.600 186.800 C 214.370 186.413,215.810 185.964,216.800 185.803 C 217.790 185.642,219.630 185.080,220.888 184.555 C 222.146 184.030,223.586 183.596,224.088 183.591 C 224.590 183.586,225.810 183.214,226.800 182.764 C 227.790 182.314,229.454 181.782,230.499 181.583 C 231.543 181.384,233.163 180.880,234.099 180.463 C 235.034 180.046,236.582 179.587,237.537 179.442 C 238.492 179.297,239.932 178.845,240.737 178.437 C 241.542 178.030,242.990 177.564,243.956 177.403 C 244.922 177.242,246.452 176.775,247.356 176.364 C 249.015 175.611,251.002 175.396,252.167 175.843 C 252.734 176.060,252.800 178.479,252.800 199.053 L 252.800 222.020 251.728 222.428 C 250.456 222.911,247.429 222.365,245.480 221.301 C 243.384 220.157,227.324 220.286,224.800 221.468 C 223.810 221.932,222.219 222.440,221.265 222.597 C 215.255 223.586,208.693 228.437,206.382 233.600 C 205.473 235.632,205.809 241.876,206.916 243.526 C 207.460 244.337,208.066 245.309,208.261 245.687 C 210.070 249.178,218.432 253.192,228.200 255.258 C 231.177 255.888,242.591 255.494,244.600 254.692 C 245.480 254.341,247.178 253.857,248.373 253.616 C 249.568 253.375,250.738 253.026,250.973 252.841 C 251.208 252.656,252.120 252.278,253.000 252.001 C 259.314 250.017,263.638 245.005,264.388 238.800 C 265.039 233.423,264.786 133.568,264.117 131.691 C 262.539 127.263,255.847 124.515,251.800 126.633 M258.847 127.685 C 260.031 128.172,261.071 128.744,261.157 128.957 C 261.244 129.170,261.784 129.779,262.357 130.311 L 263.400 131.277 263.400 186.871 C 263.400 237.316,263.341 242.508,262.761 242.932 C 262.410 243.190,261.832 243.962,261.477 244.649 C 260.831 245.900,257.227 249.200,256.506 249.200 C 256.296 249.200,255.808 249.549,255.422 249.975 C 255.036 250.402,253.843 250.939,252.771 251.169 C 251.699 251.399,250.144 251.950,249.317 252.393 C 248.489 252.837,247.343 253.200,246.770 253.200 C 246.197 253.200,244.304 253.584,242.564 254.053 C 239.024 255.007,231.446 255.248,229.512 254.468 C 228.913 254.226,226.753 253.739,224.712 253.385 C 222.670 253.031,220.730 252.510,220.400 252.227 C 220.070 251.944,218.959 251.508,217.931 251.258 C 214.717 250.477,210.703 247.342,207.639 243.219 C 206.443 241.609,206.171 234.250,207.278 233.439 C 207.607 233.198,208.194 232.370,208.582 231.600 C 208.969 230.830,209.672 229.876,210.143 229.480 C 213.134 226.969,215.542 225.437,217.181 225.005 C 218.215 224.732,219.498 224.234,220.031 223.898 C 220.564 223.562,221.893 223.160,222.985 223.006 C 224.077 222.852,225.697 222.427,226.585 222.063 C 228.972 221.083,242.320 221.097,244.614 222.081 C 247.734 223.419,252.518 224.126,253.097 223.335 C 253.696 222.516,253.829 176.181,253.235 175.243 C 252.720 174.430,247.846 174.865,245.800 175.907 C 244.920 176.356,243.300 176.846,242.200 176.996 C 241.100 177.147,239.660 177.599,239.000 178.000 C 238.340 178.401,236.900 178.857,235.800 179.012 C 234.700 179.167,233.260 179.617,232.600 180.012 C 231.940 180.407,230.500 180.859,229.400 181.017 C 228.300 181.176,226.764 181.625,225.987 182.016 C 225.210 182.407,223.514 182.923,222.218 183.163 C 220.922 183.402,219.471 183.854,218.994 184.167 C 218.516 184.480,217.076 184.930,215.794 185.167 C 214.511 185.404,213.069 185.856,212.588 186.171 C 212.107 186.486,210.582 186.949,209.200 187.200 C 207.818 187.451,206.293 187.914,205.812 188.229 C 205.331 188.544,203.898 188.994,202.628 189.229 C 201.357 189.464,199.661 189.988,198.859 190.394 C 198.056 190.800,196.590 191.259,195.600 191.414 C 194.610 191.569,193.170 192.013,192.400 192.400 C 191.630 192.787,190.190 193.231,189.200 193.386 C 188.210 193.541,186.770 193.985,186.000 194.373 C 185.230 194.760,183.925 195.299,183.100 195.570 C 182.275 195.840,181.559 196.093,181.509 196.131 C 181.458 196.169,181.323 211.770,181.209 230.800 L 181.000 265.400 180.000 266.949 C 178.243 269.669,174.305 273.215,172.400 273.789 C 171.850 273.955,170.860 274.415,170.200 274.811 C 169.540 275.207,167.934 275.726,166.631 275.965 C 165.328 276.203,163.798 276.714,163.231 277.099 C 161.679 278.154,143.527 278.158,141.977 277.104 C 141.414 276.721,139.974 276.225,138.777 276.000 C 136.416 275.558,131.247 273.220,130.417 272.220 C 130.134 271.879,129.738 271.600,129.538 271.600 C 129.106 271.600,126.400 268.957,126.400 268.535 C 126.400 268.374,125.905 267.529,125.300 266.656 C 123.766 264.443,123.642 258.258,125.100 256.706 C 125.595 256.180,126.000 255.557,126.000 255.322 C 126.000 254.948,127.707 253.120,130.200 250.824 C 130.640 250.419,131.450 249.953,132.000 249.789 C 132.550 249.624,133.403 249.175,133.895 248.791 C 134.388 248.407,135.648 247.966,136.695 247.811 C 137.743 247.656,139.165 247.183,139.856 246.760 C 140.717 246.232,142.413 245.867,145.256 245.599 C 147.535 245.385,150.120 245.106,151.000 244.980 C 153.673 244.598,164.184 245.883,165.899 246.802 C 167.561 247.693,169.987 247.853,170.720 247.120 C 171.087 246.753,171.202 236.225,171.210 202.220 C 171.215 176.778,171.376 157.116,171.586 156.200 C 172.023 154.293,175.012 151.423,177.200 150.811 C 177.970 150.596,178.970 150.160,179.422 149.842 C 179.875 149.524,181.405 149.054,182.822 148.799 C 184.240 148.543,185.670 148.094,186.000 147.800 C 186.330 147.506,187.770 147.058,189.200 146.804 C 190.630 146.550,192.209 146.078,192.709 145.756 C 193.209 145.433,194.644 144.980,195.897 144.748 C 197.150 144.517,198.810 144.007,199.587 143.616 C 200.364 143.225,201.900 142.776,203.000 142.617 C 204.100 142.459,205.540 142.001,206.200 141.600 C 206.860 141.199,208.300 140.741,209.400 140.583 C 210.500 140.424,212.036 139.975,212.813 139.584 C 213.590 139.193,215.250 138.683,216.503 138.452 C 217.756 138.220,219.191 137.768,219.691 137.446 C 220.191 137.124,221.666 136.668,222.969 136.432 C 224.272 136.195,225.731 135.744,226.212 135.429 C 226.693 135.114,228.218 134.651,229.600 134.400 C 230.982 134.149,232.507 133.686,232.988 133.371 C 233.469 133.056,234.928 132.605,236.231 132.368 C 237.534 132.132,238.990 131.688,239.467 131.381 C 239.944 131.075,241.629 130.554,243.212 130.224 C 244.794 129.895,246.337 129.418,246.640 129.167 C 246.944 128.915,248.454 128.468,249.996 128.174 C 251.538 127.881,253.114 127.457,253.500 127.232 C 254.628 126.575,256.539 126.737,258.847 127.685 " stroke="none" fill="#80640c" fill-rule="evenodd"></path></g></svg>